<svg width="36" height="32" viewBox="0 0 36 32" id="mute" xmlns="http://www.w3.org/2000/svg">
<path d="M18.405 0.387C17.96 0.387 17.574 0.55 17.249 0.875L8.693 9.431H1.961C1.515 9.431 1.13 9.594 0.805001 9.919C0.480001 10.244 0.317001 10.63 0.317001 11.075V20.94C0.317001 21.385 0.480001 21.771 0.805001 22.096C1.13 22.421 1.516 22.584 1.961 22.584H8.693L17.249 31.14C17.575 31.465 17.96 31.628 18.405 31.628C18.85 31.628 19.236 31.465 19.561 31.14C19.886 30.815 20.049 30.429 20.049 29.984V2.029C20.049 1.584 19.886 1.198 19.561 0.873C19.236 0.548 18.85 0.385 18.405 0.385V0.387Z"/>
<path d="M31.902 16.679L35.37 13.211C35.59 12.991 35.7 12.723 35.7 12.409C35.7 12.095 35.59 11.827 35.37 11.607L33.766 10.003C33.546 9.783 33.278 9.673 32.964 9.673C32.65 9.673 32.382 9.783 32.162 10.003L28.694 13.471L25.226 10.003C25.006 9.783 24.738 9.673 24.424 9.673C24.11 9.673 23.842 9.783 23.622 10.003L22.018 11.607C21.798 11.827 21.688 12.095 21.688 12.409C21.688 12.723 21.798 12.991 22.018 13.211L25.486 16.679L22.018 20.147C21.798 20.367 21.688 20.635 21.688 20.949C21.688 21.263 21.798 21.531 22.018 21.751L23.622 23.355C23.842 23.575 24.11 23.685 24.424 23.685C24.738 23.685 25.006 23.575 25.226 23.355L28.694 19.887L32.162 23.355C32.382 23.575 32.649 23.685 32.964 23.685C33.279 23.685 33.546 23.575 33.766 23.355L35.37 21.751C35.59 21.531 35.7 21.263 35.7 20.949C35.7 20.635 35.59 20.367 35.37 20.147L31.902 16.679V16.679Z"/>
</svg>
