<svg width="24" height="36" viewBox="0 0 24 36" id="pause" xmlns="http://www.w3.org/2000/svg">
<path d="M9.047 34.594V1.4C9.047 0.782 8.549 0.284 7.921 0.284H1.314C0.686003 0.284 0.188004 0.782 0.188004 1.4V34.594C0.188004 35.212 0.686003 35.72 1.314 35.72H7.921C8.549 35.72 9.047 35.222 9.047 34.594Z"/>
<path d="M22.687 0.280998H16.08C15.462 0.280998 14.954 0.778998 14.954 1.397V34.591C14.954 35.209 15.452 35.717 16.08 35.717H22.687C23.305 35.717 23.813 35.219 23.813 34.591V1.397C23.813 0.778998 23.315 0.280998 22.687 0.280998V0.280998Z"/>
</svg>
