<svg width="21" height="32" viewBox="0 0 21 32" fill="none" xmlns="http://www.w3.org/2000/svg">
<path d="M18.405 0.387C17.96 0.387 17.574 0.55 17.249 0.875L8.693 9.431H1.961C1.515 9.431 1.13 9.594 0.805001 9.919C0.480001 10.244 0.317001 10.63 0.317001 11.075V20.94C0.317001 21.385 0.480001 21.771 0.805001 22.096C1.13 22.421 1.516 22.584 1.961 22.584H8.693L17.249 31.14C17.575 31.465 17.96 31.628 18.405 31.628C18.85 31.628 19.236 31.465 19.561 31.14C19.886 30.815 20.049 30.429 20.049 29.984V2.029C20.049 1.584 19.886 1.198 19.561 0.873C19.236 0.548 18.85 0.385 18.405 0.385V0.387Z" fill="black"/>
</svg>
