<svg width="15" height="15" viewBox="0 0 15 15" fill="none" xmlns="http://www.w3.org/2000/svg">
<path d="M10.902 7.679L14.37 4.211C14.59 3.991 14.7 3.723 14.7 3.409C14.7 3.095 14.59 2.827 14.37 2.607L12.766 1.003C12.546 0.783 12.278 0.673 11.964 0.673C11.65 0.673 11.382 0.783 11.162 1.003L7.694 4.471L4.226 1.003C4.006 0.783 3.738 0.673 3.424 0.673C3.11 0.673 2.842 0.783 2.622 1.003L1.018 2.607C0.798003 2.827 0.688004 3.095 0.688004 3.409C0.688004 3.723 0.798003 3.991 1.018 4.211L4.486 7.679L1.018 11.147C0.798003 11.367 0.688004 11.635 0.688004 11.949C0.688004 12.263 0.798003 12.531 1.018 12.751L2.622 14.355C2.842 14.575 3.11 14.685 3.424 14.685C3.738 14.685 4.006 14.575 4.226 14.355L7.694 10.887L11.162 14.355C11.382 14.575 11.649 14.685 11.964 14.685C12.279 14.685 12.546 14.575 12.766 14.355L14.37 12.751C14.59 12.531 14.7 12.263 14.7 11.949C14.7 11.635 14.59 11.367 14.37 11.147L10.902 7.679V7.679Z" fill="black"/>
</svg>
